<svg class="offers-icon" width="30" height="30" viewBox="0 0 22 22" fill="none" xmlns="http://www.w3.org/2000/svg">
<path class="offers-lines" d="M13.242 20.414L20.414 13.242C20.5998 13.0563 20.7472 12.8358 20.8478 12.5931C20.9483 12.3503 21.0001 12.0902 21.0001 11.8275C21.0001 11.5648 20.9483 11.3046 20.8478 11.0619C20.7472 10.8192 20.5998 10.5987 20.414 10.413L11 1H1V11L10.413 20.415C10.5988 20.6007 10.8194 20.7481 11.0621 20.8485C11.3048 20.949 11.565 21.0007 11.8277 21.0006C12.0904 21.0005 12.3505 20.9486 12.5932 20.848C12.8359 20.7473 13.0563 20.5999 13.242 20.414V20.414Z" stroke="#1E1E1E" stroke-miterlimit="10" stroke-linecap="square"/>
<path class="offers-circle" d="M7 9C8.10457 9 9 8.10457 9 7C9 5.89543 8.10457 5 7 5C5.89543 5 5 5.89543 5 7C5 8.10457 5.89543 9 7 9Z" stroke="#1E1E1E" stroke-miterlimit="10" stroke-linecap="square"/>
</svg>
