<svg viewBox="0 0 16 17" fill="none" xmlns="http://www.w3.org/2000/svg">
<path d="M11.4375 3.9375C11.4375 5.83598 9.89848 7.375 8 7.375C6.10152 7.375 4.5625 5.83598 4.5625 3.9375C4.5625 2.03902 6.10152 0.5 8 0.5C9.89848 0.5 11.4375 2.03902 11.4375 3.9375Z" stroke="#1E1E1E"/>
<path d="M2.78772 11.2252C4.17029 9.84265 6.04477 9.06488 8 9.0625C9.95523 9.06488 11.8297 9.84265 13.2123 11.2252C14.595 12.6079 15.3728 14.4826 15.375 16.4381L15.875 16.4375H15.375C15.375 16.4541 15.3684 16.47 15.3567 16.4817C15.345 16.4934 15.3291 16.5 15.3125 16.5H0.6875C0.670924 16.5 0.655026 16.4934 0.643305 16.4817C0.631586 16.47 0.625 16.4541 0.625 16.4375H0.125L0.625 16.4381C0.627231 14.4826 1.40501 12.6079 2.78772 11.2252Z" stroke="#1E1E1E"/>
</svg>
